PathFileType	4	(X/Y/Z)	C:/Users/beibeiliu/ov580/test_trc/capture2\sequence.4_training_dense_right.trc
DataRate	CameraRate	NumFrames	NumMarkers	Units	OrigDataRate	OrigDataStartFrame	OrigNumFrames
120	120	16	19	mm	120	45	355
Frame#	Time	ThumbCMC			ThumbMCP			ThumbIP			ThumbTip			IndexMCP			IndexPIP			IndexTip			MiddleMCP			MiddlePIP			MiddleTip			RingMCP			RingPIP			RingTip			PinkyMCP			PinkyPIP			PinkyTip			BackHand1			BackHand2			BackHand3	
		X0	Y0	Z0	X1	Y1	Z1	X2	Y2	Z2	X3	Y3	Z3	X4	Y4	Z4	X5	Y5	Z5	X6	Y6	Z6	X7	Y7	Z7	X8	Y8	Z8	X9	Y9	Z9	X10	Y10	Z10	X11	Y11	Z11	X12	Y12	Z12	X13	Y13	Z13	X14	Y14	Z14	X15	Y15	Z15	X16	Y16	Z16	X17	Y17	Z17	X18	Y18	Z18	
44	0.366667	138.519	30.148	-9.42357	113.548	31.6885	-27.951	100.861	23.935	-52.3142	97.8392	2.01427	-68.2254	163.432	11.4736	-76.0707	161.639	9.3346	-97.1688	163.274	-3.38884	-120.545	133.794	-4.79934	-73.1177	103.488	-2.27805	-64.941	111.013	7.99431	-30.6494	122.647	-20.0869	-60.7645	100.969	-7.32305	-42.6354	116.804	-1.56207	-15.7761	124.668	-31.9213	-47.4229	105.562	-18.6908	-28.8216	125.802	-7.18733	-10.4425	168.685	-24.0674	-23.8705	168.178	-18.958	11.2404	170.77	10.5644	-9.61789	
45	0.375	139.652	34.6482	-9.1395	113.833	36.3232	-32.0396	101.041	29.6318	-56.8731	98.3853	4.99809	-72.6509	163.809	14.2845	-71.95	162.236	14.5912	-98.3409	165.168	4.616	-123.389	136.419	0.564347	-74.1825	106.165	5.2136	-69.4024	112.485	11.0345	-31.4834	128.743	-14.8847	-60.8854	102.598	-3.52341	-44.4405	117.974	4.27107	-16.6596	122.338	-30.1234	-49.8061	106.727	-14.991	-34.266	125.708	-6.57564	-6.5354	168.214	-17.431	-22.5292	170.572	-17.9581	11.2222	172.376	16.3159	-13.5474	
46	0.383333	140.378	42.9014	-10.1179	116.176	41.6931	-31.9843	101.91	34.027	-59.8478	100.715	13.1075	-70.1857	165.251	23.7646	-74.7693	164.205	17.6659	-98.949	167.372	8.68234	-125.202	137.742	4.99506	-74.3553	106.75	11.6269	-68.2665	114.219	16.4654	-32.9266	129.77	-8.81303	-62.8666	103.905	2.80915	-46.2161	120.111	9.92421	-18.1558	121.8	-25.3113	-51.9881	106.878	-9.07318	-29.7472	127.16	0.901156	-11.7705	167.274	-17.9289	-26.4926	171.035	-13.9464	5.23583	173.354	16.7041	-13.3328	
47	0.391667	142.938	44.9459	-7.06007	115.905	50.2013	-33.1195	103.352	43.7377	-57.8946	103.873	17.5616	-70.8021	166.375	31.0219	-74.1074	166.103	22.7903	-100.212	169.047	20.7112	-122.85	136.38	9.50644	-76.1197	106.215	18.3612	-66.2394	116.868	25.8606	-31.9014	129.61	-3.70867	-63.6907	103.206	7.01454	-44.6198	119.545	15.1038	-19.3121	123.886	-17.404	-52.4343	108.665	-0.664447	-35.3391	126.767	7.92759	-12.0791	169.748	-12.394	-24.603	171.651	-5.96383	7.8143	174.288	23.2932	-10.4172	
48	0.4	142.493	53.1964	-7.71387	116.031	57.5917	-31.0484	104.082	49.1408	-58.8315	102.061	28.3731	-71.4287	167.734	34.729	-79.1526	167.101	36.2527	-98.3323	168.878	26.2518	-121.242	136.421	17.0857	-76.8499	107.843	26.1709	-69.0328	116.527	31.7945	-32.9599	128.952	5.91392	-65.8947	104.2	13.7275	-49.7007	123.484	19.8792	-17.167	125.651	-11.6935	-52.955	106.32	1.70877	-33.1079	126.961	13.0839	-12.7235	169.012	-5.60035	-24.2446	172.119	-3.17812	4.10033	175.022	29.1904	-12.1516	
49	0.408333	143.517	56.0113	-8.59478	117.412	60.576	-34.3661	104.003	57.0771	-55.3004	103.083	32.6929	-71.787	166.643	41.478	-74.8257	166.656	39.986	-103.109	169.056	34.0102	-126.231	140.847	27.6677	-75.0357	106.504	29.9999	-66.275	115.797	36.3311	-34.0412	126.673	9.35087	-65.6436	104.961	22.6756	-50.3157	122.221	27.4501	-17.6688	127.786	-3.10288	-54.0594	107.49	8.31369	-33.8241	125.89	18.994	-12.2572	169.479	0.28319	-27.4811	170.544	4.663	3.17653	176.362	33.6318	-11.7937	
50	0.416667	142.572	66.0269	-9.13957	115.397	69.9207	-30.9094	104.42	64.1935	-53.8724	102.967	40.3786	-73.433	168.972	52.1313	-76.0658	168.062	51.34	-100.686	168.965	45.3563	-122.901	136.95	36.4133	-78.0632	109.33	41.8411	-69.6925	116.488	39.9764	-32.536	127.383	16.8146	-66.2707	104.555	27.9664	-49.9381	121.674	31.9665	-17.3119	125.956	5.14257	-54.4889	108.797	20.1781	-36.6434	127.437	21.3536	-10.4791	170.052	10.4505	-30.6616	172.767	10.636	1.60245	175.005	39.2032	-10.6972	
51	0.425	141.306	73.182	-3.63887	116.613	73.8997	-31.0732	104.555	68.9668	-52.2208	103.559	47.4746	-71.2696	167.437	59.5312	-71.9957	165.169	59.7141	-96.4136	168.156	59.1269	-122.475	140.5	44.1024	-74.6614	109.168	49.9578	-69.7729	117.678	53.2285	-31.354	128.485	24.4004	-66.0958	104.89	39.484	-47.4442	121.481	39.2472	-17.3177	125.008	14.3729	-55.9319	107.331	22.5499	-36.4391	130.058	31.0754	-10.208	170.138	17.4071	-30.8937	171.522	13.318	2.72097	176.442	48.4115	-10.9003	
52	0.433333	141.825	79.2434	-3.16937	113.896	82.2144	-27.2844	104.193	75.1643	-51.8117	101.708	57.7154	-69.9966	165.942	69.4844	-74.5857	165.566	74.107	-98.3154	166.895	67.1919	-123.942	137.645	53.2928	-76.2737	109.362	60.9124	-67.8421	117.757	56.6413	-30.8519	127.17	38.2193	-66.8783	104.969	45.6782	-48.3874	121.549	46.7404	-17.2156	127.085	22.7981	-56.9426	107.977	33.9335	-37.5283	127.061	38.6087	-11.9745	170.322	22.8875	-29.9789	171.31	23.9985	5.12083	174.29	53.324	-10.3658	
53	0.441667	140.475	83.7549	0.740827	112.422	89.6228	-23.0013	101.813	85.3159	-46.5103	102.541	63.5811	-70.1972	165.572	80.3067	-67.803	163.848	81.9803	-91.1847	164.896	79.9558	-116.128	139.809	66.1896	-72.7362	106.731	67.5452	-63.2386	116.381	62.9287	-29.5082	126.246	45.563	-67.1476	103.976	51.6842	-48.6367	122.102	56.9728	-17.8354	127.266	28.7816	-57.852	106.423	36.8754	-38.3887	124	45.9576	-12.8578	171.144	30.9264	-27.3698	172.073	29.185	3.6143	175.916	63.1857	-8.29872	
54	0.45	138.61	85.278	4.3017	113.019	91.0838	-17.6001	102.177	91.4896	-46.0707	101.77	75.8193	-64.7187	165.725	90.2944	-67.1433	164.811	96.945	-91.267	165.72	96.1093	-112.015	138.308	75.4394	-71.3496	107.207	76.5586	-60.8468	114.894	73.7157	-28.5748	127.771	57.6353	-65.1489	103.746	57.7596	-48.1569	117.677	60.369	-17.842	125.705	40.0328	-58.7611	107.796	47.3904	-37.5384	128.104	49.9803	-9.99751	170.03	42.1585	-28.4757	170.955	33.1766	4.56775	174.817	69.9733	-7.39917	
55	0.458333	136.223	88.6854	7.23045	112.126	95.3881	-17.3069	100.019	98.388	-39.5818	103.11	81.5161	-63.7068	163.925	103.342	-59.3725	162.747	108.03	-83.568	164.374	110.93	-105.036	139.043	84.3105	-67.3353	108.248	84.8317	-60.9992	116.145	76.7884	-24.432	130.992	62.3709	-63.8702	104.72	70.1613	-45.6212	116.992	62.9215	-15.085	129.916	47.6039	-58.1496	106.739	51.9016	-37.5609	123.906	58.2986	-11.9265	171.385	48.3462	-27.2024	169.793	38.9863	6.28421	171.888	78.0077	-1.80185	
56	0.466667	132.72	92.7989	11.9529	106.901	99.8249	-12.0034	98.7777	103.897	-36.9106	100.468	92.2617	-60.6499	161.178	111.491	-53.2779	159.904	122.019	-72.4209	162.312	127.908	-98.7919	138.374	93.5747	-62.3407	107.688	90.6825	-60.0981	111.093	82.6566	-23.6861	131.411	74.4979	-59.7788	101.954	71.2913	-45.6139	113.517	66.4673	-15.0165	129.933	57.9105	-56.2998	105.789	57.3248	-37.9102	123.904	57.8557	-10.4196	169.225	54.0705	-22.3684	169.789	44.8337	7.49588	168.648	80.2606	1.84701	
57	0.475	126.969	96.1477	19.2307	102.303	106.188	-7.22262	91.8301	112.799	-33.2841	96.3946	101.65	-52.737	156.036	123.149	-42.1427	155.77	132.889	-65.6201	156.285	140.467	-90.6299	134.126	101.287	-56.8802	101.621	98.8755	-52.2989	106.971	85.2536	-20.2629	128.299	80.3735	-56.4962	99.5889	78.5435	-43.3612	110.76	75.145	-10.3005	124.787	63.9902	-55.3681	104.876	66.8107	-35.4982	123.829	64.8343	-5.73347	167.188	65.3134	-17.4466	167.027	50.97	7.33468	164.568	85.3158	7.30406	
58	0.483333	125.793	97.3973	19.2144	99.1886	106.041	-0.825919	88.4468	115.2	-24.8127	93.7587	103.721	-51.8597	153.662	123.406	-39.882	153.396	139.518	-62.3127	153.202	146.236	-85.0398	133.391	104.421	-53.0489	99.2242	98.4565	-50.2987	105.186	89.6036	-14.423	125.886	87.4876	-53.0975	97.7759	78.7972	-39.3434	107.378	74.7055	-9.6561	124.09	66.0859	-53.1667	102.416	66.424	-32.5525	119.725	63.9516	-4.11365	163.795	63.1798	-16.863	165	49.0425	12.5952	162.724	85.6486	11.355	
59	0.491667	125.278	94.6914	19.7924	97.5201	107.415	0.127259	91.2569	110.25	-27.7065	91.2301	103.342	-49.9696	152.938	124.745	-38.6392	152.395	134.392	-62.1885	152.671	140.748	-88.0957	129.034	103.957	-55.0528	97.974	99.2791	-50.3044	101.274	86.7474	-17.4939	123.204	83.0843	-55.3838	95.3591	77.7762	-39.9259	106.436	70.3047	-9.70001	124.155	63.4907	-53.3186	100.622	62.9121	-33.6342	117.107	63.6426	-7.36693	162.446	65.2259	-20.5377	164.475	48.2225	11.6929	162.884	83.0365	10.9391	
